<?xml version="1.0" encoding="UTF-8" standalone="no" ?>
<!DOCTYPE svg PUBLIC "-//W3C//DTD SVG 1.1//EN" "http://www.w3.org/Graphics/SVG/1.1/DTD/svg11.dtd">
<svg xmlns="http://www.w3.org/2000/svg" xmlns:xlink="http://www.w3.org/1999/xlink" version="1.1" width="1080" height="1080" viewBox="0 0 1080 1080" xml:space="preserve">
<desc>Created with Fabric.js 4.2.0</desc>
<defs>
</defs>
<g transform="matrix(1 0 0 1 540 540)" id="9a8cf456-eb84-479f-ad0b-3ba953b3b649"  >
<rect style="stroke: none; stroke-width: 1; stroke-dasharray: none; stroke-linecap: butt; stroke-dashoffset: 0; stroke-linejoin: miter; stroke-miterlimit: 4; fill: rgb(255,255,255); fill-opacity: 0; fill-rule: nonzero; opacity: 1; visibility: hidden;" vector-effect="non-scaling-stroke"  x="-540" y="-540" rx="0" ry="0" width="1080" height="1080" />
</g>
<g transform="matrix(1 0 0 1 540 540)" id="f98bb040-cca2-4bab-aa78-f912f075e29c"  >
</g>
<g transform="matrix(0.18 0 0 0.18 607.37 568.7)"  >
<path style="stroke: none; stroke-width: 1; stroke-dasharray: none; stroke-linecap: butt; stroke-dashoffset: 0; stroke-linejoin: miter; stroke-miterlimit: 4; fill: rgb(32,29,32); fill-rule: nonzero; opacity: 1;" vector-effect="non-scaling-stroke"  transform=" translate(-1619.74, -1173.05)" d="M 2006.5 1485.6 C 1907.7 1586.3999999999999 1769.5 1643.3999999999999 1619.8 1643.6 C 1470 1643.8999999999999 1331.6999999999998 1587.3 1232.9 1486.8 C 1184.6000000000001 1437.8 1149.2 1381.6 1127.2 1321.5 C 1105.7 1262.5 1097.5 1199.4 1103 1136.9 C 1108.3 1075.9 1126.3 1016.6000000000001 1156 963.0000000000001 C 1184.9 910.6000000000001 1224.6 863.3000000000001 1273.6 823.3000000000002 C 1369.6 745.0000000000002 1491.8 702.7000000000002 1619.8 702.5000000000002 C 1747.8 702.3000000000003 1869.8999999999999 744.4000000000002 1966 822.3000000000002 C 2014.9 862.2000000000002 2054.6 909.3000000000002 2083.4 961.6000000000001 C 2113.1 1015.2000000000002 2131.2000000000003 1074.4 2136.5 1135.4 C 2142 1198 2133.7 1261 2112.2 1320.1000000000001 C 2090.2 1380.1000000000001 2054.7 1436.4 2006.4999999999998 1485.6000000000001 z" stroke-linecap="round" />
</g>
<g transform="matrix(0.18 0 0 0.18 608.63 565.52)"  >
<path style="stroke: none; stroke-width: 1; stroke-dasharray: none; stroke-linecap: butt; stroke-dashoffset: 0; stroke-linejoin: miter; stroke-miterlimit: 4; fill: rgb(255,255,255); fill-rule: nonzero; opacity: 1;" vector-effect="non-scaling-stroke"  transform=" translate(-1630.55, -1158.35)" d="M 1300.4 1143.3 C 1304.9 1061.8 1344.9 989.9 1405.1000000000001 939 C 1464.2 888.9 1543.8000000000002 858.4 1630.5000000000002 858.4 C 1717.3000000000002 858.5 1796.8000000000002 889 1855.9000000000003 939 C 1916.1000000000004 990 1956.1000000000004 1061.8 1960.7000000000003 1143.3 C 1965.3000000000002 1227.1 1931.6000000000004 1305 1872.5000000000002 1362.7 C 1812.3000000000002 1421.4 1726.5000000000002 1458.3 1630.5000000000002 1458.3 C 1534.5000000000002 1458.3 1448.6000000000001 1421.3999999999999 1388.4000000000003 1362.7 C 1329.4000000000003 1305 1295.8000000000004 1227.1000000000001 1300.4000000000003 1143.3 z" stroke-linecap="round" />
</g>
<g transform="matrix(0.18 0 0 0.18 540 540)"  >
<path style="stroke: none; stroke-width: 1; stroke-dasharray: none; stroke-linecap: butt; stroke-dashoffset: 0; stroke-linejoin: miter; stroke-miterlimit: 4; fill: rgb(255,255,255); fill-rule: nonzero; opacity: 1;" vector-effect="non-scaling-stroke"  transform=" translate(-1248.26, -1019.64)" d="M 774.5 1308.3 C 775.1 1340.1 785.3 1402.1 800.5 1450.6 C 832.6 1553.1 887 1648 962.8 1731.6 C 1040.6 1817.5 1136.2 1886.5 1246.8 1935.3999999999999 C 1363.1 1986.8999999999999 1489 2013.1999999999998 1619.6999999999998 2012.8999999999999 C 1750.3999999999999 2012.6999999999998 1876.2999999999997 1985.9999999999998 1992.4999999999998 1934.1 C 2103 1884.6 2198.6 1815.3999999999999 2276.2999999999997 1729.3 C 2351.9999999999995 1645.3 2406.2999999999997 1550.3 2438.3999999999996 1447.8 C 2454.3999999999996 1396.7 2464.7 1344 2468.8999999999996 1290.7 C 2472.8999999999996 1238.7 2471.2 1186.3 2463.8999999999996 1134.6000000000001 C 2449.4999999999995 1033.2 2414.3999999999996 938.1000000000001 2360.3999999999996 851.4000000000001 C 2310.8999999999996 771.8000000000001 2247.2999999999997 702.0000000000001 2171.5999999999995 643.2 L 2171.6999999999994 643.1 L 1407.8999999999994 56.700000000000045 C 1407.2999999999995 56.200000000000045 1406.5999999999995 55.600000000000044 1405.9999999999993 55.100000000000044 C 1355.6999999999994 16.700000000000045 1271.4999999999993 16.800000000000047 1216.3999999999994 55.40000000000004 C 1160.5999999999995 94.40000000000003 1154.2999999999995 158.90000000000003 1203.7999999999995 199.60000000000002 L 1203.5999999999995 199.70000000000002 L 1522.1999999999994 458.9 L 550.8999999999994 459.9 L 549.5999999999995 459.9 C 469.39999999999947 460 392.1999999999995 512.6999999999999 376.89999999999947 579.1999999999999 C 361.29999999999944 646.9999999999999 415.79999999999944 703.1999999999999 499.2999999999995 703.5999999999999 L 499.1999999999995 703.8999999999999 L 991.4999999999995 702.8999999999999 L 112.99999999999955 1377.1999999999998 C 111.89999999999955 1378.1 110.69999999999955 1378.8999999999999 109.69999999999955 1379.6999999999998 C 26.89999999999955 1443.1 0.09999999999955378 1548.6999999999998 52.19999999999955 1615.4999999999998 C 105.19999999999955 1683.3999999999999 217.79999999999956 1683.4999999999998 301.59999999999957 1615.7999999999997 L 780.9999999999995 1223.4999999999998 C 780.9999999999995 1223.4999999999998 773.9999999999995 1276.4999999999998 774.4999999999995 1308.2999999999997 z M 2006.5 1485.6 C 1907.7 1586.3999999999999 1769.5 1643.3999999999999 1619.8 1643.6 C 1470 1643.8999999999999 1331.6999999999998 1587.3 1232.9 1486.8 C 1184.6000000000001 1437.8 1149.2 1381.6 1127.2 1321.5 C 1105.7 1262.5 1097.5 1199.4 1103 1136.9 C 1108.3 1075.9 1126.3 1016.6000000000001 1156 963.0000000000001 C 1184.9 910.6000000000001 1224.6 863.3000000000001 1273.6 823.3000000000002 C 1369.6 745.0000000000002 1491.8 702.7000000000002 1619.8 702.5000000000002 C 1747.8 702.3000000000003 1869.8999999999999 744.4000000000002 1966 822.3000000000002 C 2014.9 862.2000000000002 2054.6 909.3000000000002 2083.4 961.6000000000001 C 2113.1 1015.2000000000002 2131.2000000000003 1074.4 2136.5 1135.4 C 2142 1198 2133.7 1261 2112.2 1320.1000000000001 C 2090.2 1380.1000000000001 2054.7 1436.4 2006.4999999999998 1485.6000000000001 z" stroke-linecap="round" />
</g>
</svg>