<?xml version="1.0" encoding="UTF-8" standalone="no" ?>
<!DOCTYPE svg PUBLIC "-//W3C//DTD SVG 1.1//EN" "http://www.w3.org/Graphics/SVG/1.1/DTD/svg11.dtd">
<svg xmlns="http://www.w3.org/2000/svg" xmlns:xlink="http://www.w3.org/1999/xlink" version="1.1" width="1080" height="1080" viewBox="0 0 1080 1080" xml:space="preserve">
<desc>Created with Fabric.js 4.2.0</desc>
<defs>
</defs>
<g transform="matrix(1 0 0 1 540 540)" id="5438017a-d91f-45e4-8046-b41eaac63dc2"  >
<rect style="stroke: none; stroke-width: 1; stroke-dasharray: none; stroke-linecap: butt; stroke-dashoffset: 0; stroke-linejoin: miter; stroke-miterlimit: 4; fill: rgb(255,255,255); fill-rule: nonzero; opacity: 1; visibility: hidden;" vector-effect="non-scaling-stroke"  x="-540" y="-540" rx="0" ry="0" width="1080" height="1080" />
</g>
<g transform="matrix(1 0 0 1 540 540)" id="658a1477-122d-41a0-9efa-039469d0959f"  >
</g>
<g transform="matrix(2.44 0 0 2.44 540 540)"  >
<path style="stroke: rgb(255,255,255); stroke-width: 4; stroke-dasharray: none; stroke-linecap: butt; stroke-dashoffset: 0; stroke-linejoin: round; stroke-miterlimit: 10; fill: none; fill-rule: evenodd; opacity: 1;" vector-effect="non-scaling-stroke"  transform=" translate(-106.42, -113.14)" d="M 63.02 200.61 L 19.807000000000002 25.670000000000016 L 193.03699999999998 75.54400000000001 z" stroke-linecap="round" />
</g>
<g transform="matrix(2.44 0 0 2.44 487.05 494.22)"  >
<path style="stroke: rgb(255,255,255); stroke-width: 4; stroke-dasharray: none; stroke-linecap: butt; stroke-dashoffset: 0; stroke-linejoin: round; stroke-miterlimit: 10; fill: none; fill-rule: evenodd; opacity: 1;" vector-effect="non-scaling-stroke"  transform=" translate(-84.7, -94.36)" d="M 106.39 50.612 L 127.981 138.108 L 41.414 113.16300000000001 z" stroke-linecap="round" />
</g>
<g transform="matrix(2.44 0 0 2.44 513.84 516.01)"  >
<path style="stroke: rgb(255,255,255); stroke-width: 4; stroke-dasharray: none; stroke-linecap: butt; stroke-dashoffset: 0; stroke-linejoin: round; stroke-miterlimit: 10; fill: none; fill-rule: evenodd; opacity: 1;" vector-effect="non-scaling-stroke"  transform=" translate(-95.69, -103.3)" d="M 84.91 125.03 L 74.18599999999999 81.565 L 117.19399999999999 93.911 z" stroke-linecap="round" />
</g>
<g transform="matrix(2.44 0 0 2.44 409 410.19)"  >
<path style="stroke: rgb(255,255,255); stroke-width: 4; stroke-dasharray: none; stroke-linecap: butt; stroke-dashoffset: 0; stroke-linejoin: round; stroke-miterlimit: 10; fill: none; fill-rule: evenodd; opacity: 1;" vector-effect="non-scaling-stroke"  transform=" translate(-52.68, -59.89)" d="M 63.458 38.153 L 74.182 81.618 L 31.174 69.27199999999999 z" stroke-linecap="round" />
</g>
<g transform="matrix(2.44 0 0 2.44 618.65 470.59)"  >
<path style="stroke: rgb(255,255,255); stroke-width: 4; stroke-dasharray: none; stroke-linecap: butt; stroke-dashoffset: 0; stroke-linejoin: round; stroke-miterlimit: 10; fill: none; fill-rule: evenodd; opacity: 1;" vector-effect="non-scaling-stroke"  transform=" translate(-138.69, -84.66)" d="M 149.47 62.93 L 160.194 106.39500000000001 L 117.18599999999998 94.049 z" stroke-linecap="round" />
</g>
<g transform="matrix(2.44 0 0 2.44 461.3 622.03)"  >
<path style="stroke: rgb(255,255,255); stroke-width: 4; stroke-dasharray: none; stroke-linecap: butt; stroke-dashoffset: 0; stroke-linejoin: round; stroke-miterlimit: 10; fill: none; fill-rule: evenodd; opacity: 1;" vector-effect="non-scaling-stroke"  transform=" translate(-74.14, -146.79)" d="M 84.915 125.06 L 95.63900000000001 168.525 L 52.63100000000001 156.179 z" stroke-linecap="round" />
</g>
</svg>